<svg 
 xmlns="http://www.w3.org/2000/svg"
 xmlns:xlink="http://www.w3.org/1999/xlink"
 width="10px" height="6px">
<path fill-rule="evenodd"  fill="rgb(1, 60, 116)"
 d="M8.571,0.429 L0.571,0.429 C0.417,0.429 0.283,0.485 0.170,0.598 C0.057,0.711 0.000,0.845 0.000,1.000 C0.000,1.155 0.057,1.289 0.170,1.402 L4.170,5.402 C4.283,5.515 4.417,5.571 4.571,5.571 C4.726,5.571 4.860,5.515 4.973,5.402 L8.973,1.402 C9.086,1.289 9.143,1.155 9.143,1.000 C9.143,0.845 9.086,0.711 8.973,0.598 C8.860,0.485 8.726,0.429 8.571,0.429 L8.571,0.429 Z"/>
</svg>