<svg 
 xmlns="http://www.w3.org/2000/svg"
 xmlns:xlink="http://www.w3.org/1999/xlink"
 width="31px" height="31px">
<path fill-rule="evenodd"  fill="rgb(92, 195, 92)"
 d="M22.190,15.260 C22.190,17.031 21.569,18.537 20.331,19.776 C19.091,21.016 17.585,21.635 15.815,21.635 C14.044,21.635 12.538,21.016 11.299,19.776 C10.059,18.537 9.440,17.031 9.440,15.260 C9.440,13.490 10.059,11.985 11.299,10.745 C12.538,9.506 14.044,8.885 15.815,8.885 C17.585,8.885 19.091,9.506 20.331,10.745 C21.569,11.985 22.190,13.490 22.190,15.260 ZM14.420,0.385 L14.420,4.635 L17.210,4.635 L17.210,0.385 L14.420,0.385 ZM23.252,5.831 L25.245,7.823 L27.768,5.299 L25.776,3.307 L23.252,5.831 ZM3.862,5.299 L6.385,7.823 L8.377,5.831 L5.854,3.307 L3.862,5.299 ZM7.315,15.260 C7.315,17.563 8.155,19.555 9.838,21.237 C11.520,22.920 13.513,23.760 15.815,23.760 C18.116,23.760 20.109,22.920 21.792,21.237 C23.473,19.555 24.315,17.563 24.315,15.260 C24.315,12.959 23.473,10.967 21.792,9.284 C20.109,7.602 18.116,6.760 15.815,6.760 C13.513,6.760 11.520,7.602 9.838,9.284 C8.155,10.967 7.315,12.959 7.315,15.260 ZM26.440,13.866 L26.440,16.655 L30.690,16.655 L30.690,13.866 L26.440,13.866 ZM0.940,13.866 L0.940,16.655 L5.190,16.655 L5.190,13.866 L0.940,13.866 ZM23.252,24.690 L25.776,27.213 L27.768,25.221 L25.245,22.698 L23.252,24.690 ZM3.862,25.221 L5.854,27.213 L8.377,24.690 L6.385,22.698 L3.862,25.221 ZM14.420,25.885 L14.420,30.135 L17.210,30.135 L17.210,25.885 L14.420,25.885 Z"/>
</svg>