<svg xmlns="http://www.w3.org/2000/svg" viewBox="0 0 40 34.11"><defs><style>.cls-1{fill:#fff;}</style></defs><title>consulting_services</title><g id="Layer_2" data-name="Layer 2"><g id="Layer_1-2" data-name="Layer 1"><polygon class="cls-1" points="34.15 21.88 33.3 22.81 35.12 24.47 35.12 25.47 28.38 25.47 28.38 24.47 30.2 22.81 29.34 21.88 27.12 23.92 27.12 26.74 36.38 26.74 36.38 23.92 34.15 21.88"/><path class="cls-1" d="M33.63,16.15a1,1,0,0,1-.23.77c-.32.3-2.1.22-2.28.22v1.26c.15,0,1.54,0,1.72,0v1.34a1.13,1.13,0,0,1-1.13,1.13h0a1.13,1.13,0,0,1-1.13-1.13V18.44H29.31v1.31a2.4,2.4,0,0,0,2.39,2.39h0a2.4,2.4,0,0,0,2.39-2.39V18l.17-.14a2.22,2.22,0,0,0,.62-1.68H33.63Z"/><polygon class="cls-1" points="10.57 18.59 9.72 19.52 11.54 21.19 11.54 22.19 4.8 22.19 4.8 21.19 6.62 19.52 5.76 18.59 3.54 20.63 3.54 23.45 12.8 23.45 12.8 20.63 10.57 18.59"/><path class="cls-1" d="M10.05,12.87a1,1,0,0,1-.23.77c-.32.3-2.1.22-2.28.22v1.26c.15,0,1.54,0,1.72,0v1.34A1.13,1.13,0,0,1,8.13,17.6h0A1.13,1.13,0,0,1,7,16.47V15.16H5.73v1.31a2.4,2.4,0,0,0,2.39,2.39h0a2.4,2.4,0,0,0,2.39-2.39V14.69l.17-.14a2.22,2.22,0,0,0,.62-1.68H10.05Z"/><polygon class="cls-1" points="22.41 8.83 21.55 9.76 23.37 11.42 23.37 12.42 16.63 12.42 16.63 11.42 18.45 9.76 17.59 8.83 15.37 10.87 15.37 13.68 24.63 13.68 24.63 10.87 22.41 8.83"/><path class="cls-1" d="M21.89,3.1a1,1,0,0,1-.23.77c-.32.3-2.1.22-2.28.22V5.35c.15,0,1.54,0,1.72,0V6.7A1.13,1.13,0,0,1,20,7.83h0A1.13,1.13,0,0,1,18.82,6.7V5.39H17.56V6.7A2.4,2.4,0,0,0,20,9.09h0A2.4,2.4,0,0,0,22.36,6.7V4.93l.17-.14a2.22,2.22,0,0,0,.62-1.68H21.89Z"/><path class="cls-1" d="M28.21,13.05V.47A.47.47,0,0,0,27.74,0H12.26a.47.47,0,0,0-.47.47v9.3H.47a.47.47,0,0,0-.47.47V25.72a.47.47,0,0,0,.47.47H6.22a.47.47,0,0,1,.32.12l3.94,3.58a.47.47,0,0,0,.79-.35V26.66a.47.47,0,0,1,.47-.47H16a.47.47,0,0,0,.47-.47V16.89a.47.47,0,0,1,.47-.47h0a.47.47,0,0,1,.44.3l1.86,5a.47.47,0,0,0,.88,0l1.86-5a.47.47,0,0,1,.44-.3h.75a.47.47,0,0,1,.47.47V29a.47.47,0,0,0,.47.47h4.22a.47.47,0,0,1,.47.47v2.88a.47.47,0,0,0,.79.35l3.94-3.58a.47.47,0,0,1,.32-.12h5.75A.47.47,0,0,0,40,29V13.52a.47.47,0,0,0-.47-.47ZM14.69,24.93H10.47a.47.47,0,0,0-.47.47v1.29a.47.47,0,0,1-.79.35L7,25a.47.47,0,0,0-.32-.12h-5a.47.47,0,0,1-.47-.47v-13A.47.47,0,0,1,1.73,11h9.59a.47.47,0,0,1,.47.47V16a.47.47,0,0,0,.47.47h2.43a.47.47,0,0,1,.47.47v7.57A.47.47,0,0,1,14.69,24.93Zm6.47-9.77-1.1,2.92a.47.47,0,0,1-.88,0l-1-2.62a.47.47,0,0,0-.44-.3H13.52a.47.47,0,0,1-.47-.47v-13a.47.47,0,0,1,.47-.47h13a.47.47,0,0,1,.47.47v13a.47.47,0,0,1-.47.47H21.16ZM38.27,28.21h-5a.47.47,0,0,0-.32.12l-2.19,2A.47.47,0,0,1,30,30V28.68a.47.47,0,0,0-.47-.47H25.31a.47.47,0,0,1-.47-.47V16.89a.47.47,0,0,1,.47-.47h2.43a.47.47,0,0,0,.47-.47V14.79a.47.47,0,0,1,.47-.47h9.59a.47.47,0,0,1,.47.47v13A.47.47,0,0,1,38.27,28.21Z"/><rect class="cls-1" x="15.92" y="32.84" width="1.26" height="1.26" rx="0.63" ry="0.63"/><rect class="cls-1" x="22.82" y="32.84" width="1.26" height="1.26" rx="0.63" ry="0.63"/><rect class="cls-1" x="19.37" y="32.84" width="1.26" height="1.26" rx="0.63" ry="0.63"/></g></g></svg>