<svg xmlns="http://www.w3.org/2000/svg" viewBox="0 0 34 35.85"><defs><style>.cls-1{fill:#fff;}</style></defs><title>staffing</title><g id="Layer_2" data-name="Layer 2"><g id="Layer_1-2" data-name="Layer 1"><path class="cls-1" d="M12.16,3.92a.56.56,0,0,0,0,1.12H16.8a3.5,3.5,0,0,1,.5-1.12Z"/><path class="cls-1" d="M33.23,0H9.11a.77.77,0,0,0-.77.77V16.93a.77.77,0,0,0,.77.77h4V16.16H9.89V1.55H32.45V16.16h-8v1.55h8.78a.77.77,0,0,0,.77-.77V.77A.77.77,0,0,0,33.23,0Z"/><path class="cls-1" d="M20.22,3.42a2.46,2.46,0,0,0-1.7,4.25h3.4a2.46,2.46,0,0,0-1.7-4.25Z"/><path class="cls-1" d="M31.12,5.45a1.18,1.18,0,0,0-.48-.27l-.26-1.26a.7.7,0,0,0-1.38,0H23.14A3.5,3.5,0,0,1,23.63,5h5.54l.12.59L26.88,8.21l-4.35.51H17a2.82,2.82,0,0,0-2.81,2.8l0,8.65a1.19,1.19,0,0,0,1.18,1.28h0a1.19,1.19,0,0,0,1.19-1.18V17.73l0-6.2a.25.25,0,0,1,.5,0c0,11.1,0,2.64,0,18a3.94,3.94,0,0,1,1.42-.33v-.28a3.63,3.63,0,0,1,1.44-4.75V20.11h.62v3.78a3.63,3.63,0,0,1,2.85.18V11l4.2-.49a1.19,1.19,0,0,0,.73-.37l2.85-3A1.19,1.19,0,0,0,31.12,5.45Z"/><path class="cls-1" d="M27.54,33.16a2.73,2.73,0,0,0-2.72-2.7H18.66a2.72,2.72,0,0,0-2.72,2.7v2.69h1A2.82,2.82,0,0,1,19.75,33h4.08a2.81,2.81,0,0,1,2.81,2.81h.91Z"/><path class="cls-1" d="M21.75,24.94a2.38,2.38,0,1,0,2.38,2.38A2.38,2.38,0,0,0,21.75,24.94Z"/><path class="cls-1" d="M5.81,24.94a2.38,2.38,0,1,0,2.38,2.38A2.38,2.38,0,0,0,5.81,24.94Z"/><path class="cls-1" d="M23.83,33.85H19.75a2,2,0,0,0-2,2h8.1A2,2,0,0,0,23.83,33.85Z"/><path class="cls-1" d="M7.7,33.85H3.62a2,2,0,0,0-2,2h8.1A2,2,0,0,0,7.7,33.85Z"/><path class="cls-1" d="M13.85,22.31a1,1,0,0,0-1.22.77l-1.2,5.31L8.59,30.46H2.73A2.73,2.73,0,0,0,0,33.16v2.69H.81A2.81,2.81,0,0,1,3.62,33H7.7a2.79,2.79,0,0,1,1.43.39l0-.87,3.79-2.77a1,1,0,0,0,.39-.6l1.29-5.68A1,1,0,0,0,13.85,22.31Z"/></g></g></svg>