<svg xmlns="http://www.w3.org/2000/svg" xmlns:xlink="http://www.w3.org/1999/xlink" viewBox="0 0 163.8 64"><defs><style>.cls-1{fill:url(#linear-gradient);}.cls-2{fill:#0c3367;}.cls-3{fill:#0c6cd2;}.cls-4{fill:url(#linear-gradient-2);}.cls-5{fill:#545454;}.cls-6{fill:#fff;}.cls-7{fill:#6d6e71;}</style><linearGradient id="linear-gradient" x1="31.74" y1="43.78" x2="37.17" y2="52.63" gradientUnits="userSpaceOnUse"><stop offset="0" stop-color="#0d225b"/><stop offset="0.13" stop-color="#0d397e"/><stop offset="0.28" stop-color="#0c4d9f"/><stop offset="0.41" stop-color="#0c5ab4"/><stop offset="0.49" stop-color="#0c5fbb"/><stop offset="0.58" stop-color="#0c5bb5"/><stop offset="0.7" stop-color="#0c51a6"/><stop offset="0.82" stop-color="#0c418b"/><stop offset="0.96" stop-color="#0d2a67"/><stop offset="1" stop-color="#0d225b"/></linearGradient><linearGradient id="linear-gradient-2" x1="42.65" y1="40.43" x2="28.02" y2="42.42" gradientUnits="userSpaceOnUse"><stop offset="0.02" stop-color="#0c6dce"/><stop offset="1" stop-color="#1e326d"/></linearGradient></defs><title>sti_logo</title><g id="Layer_2" data-name="Layer 2"><g id="Layer_1-2" data-name="Layer 1"><path class="cls-1" d="M17.67,45.16s.74,16.12,12.9,18.47,20.58-7.31,23.19-14.26c0,0-15.13,18.22-25.54,8.8L20,44.3Z"/><path class="cls-2" d="M19.53,33.76S19.87,25.22,30,7.11l.33.14s-9.63,21.67-10.09,26Z"/><path class="cls-3" d="M57.9,32.76C52.42,48,42,57.38,32.08,54.59c-4.85-1.36-6.56-7.08-7-12.58l-5.7,2.59c0,.23.06.47.1.7C23,65.42,38.59,64,47.15,58.12S59.49,32.18,59.49,32.18Z"/><path class="cls-3" d="M25.39,30.69C26.6,19.16,31.52,7.35,31.52,7.35l1.4,2.6L35,0,25.48,8.84l4.93-1.67s-7.47,13.6-10.24,26.22l5.2-2.56Z"/><path class="cls-3" d="M59.95,27.43S58.28,54.4,43.4,60.1L42.09,54S53.75,49.13,59.95,27.43Z"/><path class="cls-3" d="M0,53.56s18.13-17,57.56-20.46l1.83-.53a17.47,17.47,0,0,0,.5-5.27S20.27,27.16,0,53.56Z"/><path class="cls-4" d="M1,52.82s18.32-16.09,42.5-19.25l.28,1.3S17,39.43,1,52.82Z"/><ellipse class="cls-5" cx="42.24" cy="22.23" rx="5.02" ry="3.06" transform="translate(10.04 57.46) rotate(-75.32)"/><g id="white_blue"><path class="cls-6" d="M80.71,25.7l-1.54,2H74.71a.36.36,0,0,0-.41.33c0,.22.08.33.31.33h3.21a2.43,2.43,0,0,1,1.82.69,2.2,2.2,0,0,1,.52,1.9,2.79,2.79,0,0,1-1.07,1.87,3.11,3.11,0,0,1-2,.68H71.32l1.54-2h4.51a1.25,1.25,0,0,0,.57-.13.61.61,0,0,0,.38-.45.41.41,0,0,0-.25-.45,1.19,1.19,0,0,0-.53-.11H74.32a2.35,2.35,0,0,1-1.7-.6A1.87,1.87,0,0,1,72.1,28a2.55,2.55,0,0,1,1-1.73A3,3,0,0,1,75,25.7Z"/><path class="cls-6" d="M88.48,25.7l-1.56,2H85l-.83,5.8h-2l.83-5.8h-2.6l1.54-2Z"/><path class="cls-6" d="M96.55,33.59H93.7l-1.63-2h-2.7l-.28,2H87.14l.56-4h5.44a1.77,1.77,0,0,0,.85-.19.94.94,0,0,0,.52-.72c.09-.62-.28-.93-1.1-.93H88l1.57-2h4a3.47,3.47,0,0,1,2.3.69,2.34,2.34,0,0,1,.71,2.25,3.15,3.15,0,0,1-.63,1.49,3.36,3.36,0,0,1-1.29,1Z"/><path class="cls-6" d="M99.39,33.59l1.47-2h2.64l-1.23-2.83-3.54,4.83H96.3l5-6.93A2.34,2.34,0,0,1,102,26a1.4,1.4,0,0,1,.77-.28,1.06,1.06,0,0,1,.69.28,1.62,1.62,0,0,1,.44.61l3,6.93Z"/><path class="cls-6" d="M115.84,25.79l-1.55,2h-3.17a2.06,2.06,0,0,0-1.41.54,2.2,2.2,0,0,0-.72,1.38,1.63,1.63,0,0,0,.33,1.36,1.59,1.59,0,0,0,1.27.52h2.29l.1-.73h-2.47l-1-1.92h5.71l-.66,4.65H110.3a3.14,3.14,0,0,1-2.57-1.13,3.52,3.52,0,0,1-.68-2.84,4.34,4.34,0,0,1,1.46-2.77,4.27,4.27,0,0,1,2.89-1.06Z"/><path class="cls-6" d="M116.87,33.59h-1.95l1.11-7.8H118Z"/><path class="cls-6" d="M126.43,25.79l-1.54,2h-4.45a.35.35,0,0,0-.41.33c0,.22.07.33.31.33h3.21a2.42,2.42,0,0,1,1.82.69,2.18,2.18,0,0,1,.52,1.9,2.78,2.78,0,0,1-1.07,1.87,3.1,3.1,0,0,1-2,.68H117l1.54-2h4.51a1.24,1.24,0,0,0,.57-.13.6.6,0,0,0,.38-.45.42.42,0,0,0-.25-.45,1.19,1.19,0,0,0-.54-.11H120a2.37,2.37,0,0,1-1.7-.6,1.87,1.87,0,0,1-.52-1.71,2.53,2.53,0,0,1,1-1.73,3,3,0,0,1,1.87-.6Z"/><path class="cls-6" d="M133.88,25.79l-1.56,2h-1.9l-.83,5.8h-2l.83-5.8h-2.6l1.55-2Z"/><path class="cls-6" d="M134.79,33.59h-1.95l1.11-7.8h1.95Z"/><path class="cls-6" d="M143.38,31.59l-1.55,2h-3.17a3.13,3.13,0,0,1-2.57-1.13,3.53,3.53,0,0,1-.68-2.84,4.37,4.37,0,0,1,1.46-2.77,4.27,4.27,0,0,1,2.89-1.06h4.43l-1.55,2h-3.17a2,2,0,0,0-1.41.54,2.22,2.22,0,0,0-.72,1.38,1.62,1.62,0,0,0,.33,1.35,1.56,1.56,0,0,0,1.25.52Z"/><path class="cls-6" d="M152.39,25.79l-1.54,2h-4.45a.36.36,0,0,0-.41.33c0,.22.07.33.31.33h3.21a2.41,2.41,0,0,1,1.81.69,2.18,2.18,0,0,1,.53,1.9,2.81,2.81,0,0,1-1.07,1.87,3.12,3.12,0,0,1-2,.68H143l1.54-2h4.51a1.26,1.26,0,0,0,.57-.13A.59.59,0,0,0,150,31a.41.41,0,0,0-.25-.45,1.19,1.19,0,0,0-.53-.11H146a2.36,2.36,0,0,1-1.7-.6,1.87,1.87,0,0,1-.53-1.71,2.53,2.53,0,0,1,1-1.73,3,3,0,0,1,1.87-.6Z"/><path class="cls-3" d="M67.92,35.57l-1.56,2h-1.9l-.83,5.8H61.68l.83-5.8h-2.6l1.55-2Z"/><path class="cls-3" d="M73.79,41.38l-1.55,2h-5.6l1.12-7.8h6.86l-1.55,2H69.42l-.12.85h4.6l-1.55,2H69l-.14,1Z"/><path class="cls-3" d="M81.79,41.38l-1.55,2H77.08a3.13,3.13,0,0,1-2.57-1.13,3.53,3.53,0,0,1-.68-2.84,4.36,4.36,0,0,1,1.46-2.77,4.25,4.25,0,0,1,2.89-1.06h4.43l-1.55,2H77.9a2,2,0,0,0-1.41.54,2.22,2.22,0,0,0-.72,1.38,1.62,1.62,0,0,0,.33,1.35,1.56,1.56,0,0,0,1.25.53Z"/><path class="cls-3" d="M89.61,43.38h-2l.42-2.93H84.3l-.42,2.93H81.94L83,35.57h2l-.41,2.87h3.78l.41-2.87h1.95Z"/><path class="cls-3" d="M98,42.37c-.1.71-.41,1.06-.93,1.06a1.28,1.28,0,0,1-1-.52l-3.16-3.83-.62,4.29H90.31l1-6.8a1.25,1.25,0,0,1,.33-.71.88.88,0,0,1,.68-.28,1.18,1.18,0,0,1,.92.47l3.16,3.83.61-4.3h1.95Z"/><path class="cls-3" d="M108.36,39.41a4.63,4.63,0,0,1-1.49,2.84A4.16,4.16,0,0,1,104,43.38h-1.9a3.13,3.13,0,0,1-2.57-1.13,3.49,3.49,0,0,1-.68-2.84,4.32,4.32,0,0,1,1.47-2.77,4.27,4.27,0,0,1,2.9-1.06h1.9a3.23,3.23,0,0,1,2.59,1.06A3.32,3.32,0,0,1,108.36,39.41Zm-3.55-1.83h-1.9a2,2,0,0,0-1.41.54,2.2,2.2,0,0,0-.73,1.38,1.62,1.62,0,0,0,.33,1.36,1.58,1.58,0,0,0,1.26.52h1.9a2.1,2.1,0,0,0,1.42-.52,2.14,2.14,0,0,0,.72-1.36,1.68,1.68,0,0,0-.34-1.38A1.54,1.54,0,0,0,104.81,37.58Z"/><path class="cls-3" d="M114.91,41.38l-1.56,2h-5.57l1.11-7.8h2l-.83,5.8Z"/><path class="cls-3" d="M124.11,39.41a4.58,4.58,0,0,1-1.49,2.84,4.16,4.16,0,0,1-2.89,1.13h-1.9a3.14,3.14,0,0,1-2.57-1.13,3.53,3.53,0,0,1-.68-2.84A4.35,4.35,0,0,1,116,36.64a4.27,4.27,0,0,1,2.9-1.06h1.9a3.22,3.22,0,0,1,2.59,1.06A3.29,3.29,0,0,1,124.11,39.41Zm-3.55-1.83h-1.9a2,2,0,0,0-1.42.54,2.2,2.2,0,0,0-.72,1.38,1.64,1.64,0,0,0,.33,1.36,1.59,1.59,0,0,0,1.26.52H120a2.09,2.09,0,0,0,1.41-.52,2.12,2.12,0,0,0,.72-1.36,1.7,1.7,0,0,0-.33-1.38A1.54,1.54,0,0,0,120.56,37.58Z"/><path class="cls-3" d="M133,35.57l-1.54,2h-3.17a2,2,0,0,0-1.41.54,2.2,2.2,0,0,0-.73,1.38,1.62,1.62,0,0,0,.33,1.36,1.6,1.6,0,0,0,1.27.52h2.29l.1-.73H127.7l-1-1.92h5.71l-.66,4.65h-4.25a3.12,3.12,0,0,1-2.56-1.13,3.52,3.52,0,0,1-.68-2.84,4.36,4.36,0,0,1,1.47-2.77,4.25,4.25,0,0,1,2.89-1.06Z"/><path class="cls-3" d="M142.45,35.57l-4.5,5.22-.37,2.58h-2l.37-2.59-3.12-5.21h2.51l1.91,3.17L140,35.57Z"/><path class="cls-3" d="M143,41.09l-1,3h-1.57l.45-3Z"/><path class="cls-3" d="M146.07,43.44h-2l1.17-7.87h2Z"/><path class="cls-3" d="M154.37,42.43c-.1.71-.42,1.07-1,1.07a1.31,1.31,0,0,1-1-.53l-3.25-3.86-.64,4.33h-2l1-6.86a1.3,1.3,0,0,1,.34-.72.92.92,0,0,1,.7-.29,1.22,1.22,0,0,1,1,.47l3.25,3.86.64-4.33h2Z"/><path class="cls-3" d="M162.93,41.41l-1.6,2h-3.27a3.25,3.25,0,0,1-2.65-1.14,3.49,3.49,0,0,1-.7-2.87,4.36,4.36,0,0,1,1.52-2.79,4.48,4.48,0,0,1,3-1.07h4.58l-1.6,2h-3.28a2.14,2.14,0,0,0-1.45.54,2.24,2.24,0,0,0-.75,1.38,1.61,1.61,0,0,0,.34,1.36,1.64,1.64,0,0,0,1.3.53Z"/><path class="cls-6" d="M84.24,48.06v.61h.54v.16h-.54v1a.76.76,0,0,0,.07.39.28.28,0,0,0,.25.1h.09l.12,0,0,.16-.11,0h-.08a.45.45,0,0,1-.38-.14.92.92,0,0,1-.11-.53v-1h-.18l0-.16h.14v-.57Z"/><path class="cls-6" d="M86.17,48.62v.2h-.07a.37.37,0,0,0-.32.17.8.8,0,0,0-.12.46v1l-.16,0V48.72l.16,0V49a.74.74,0,0,1,.22-.28A.47.47,0,0,1,86.17,48.62Z"/><path class="cls-6" d="M88,49.1v1.37l-.15.05v-.28a.63.63,0,0,1-.23.22.63.63,0,0,1-.75-.1.64.64,0,0,1-.18-.46.64.64,0,0,1,.65-.65.61.61,0,0,1,.29.07.52.52,0,0,1,.2.2v-.4a.33.33,0,0,0-.08-.26.43.43,0,0,0-.29-.07h-.25l0-.15h.26a.55.55,0,0,1,.38.1A.51.51,0,0,1,88,49.1Zm-.66.31a.47.47,0,0,0-.35.14.51.51,0,0,0,0,.7.46.46,0,0,0,.34.14.46.46,0,0,0,.34-.15.5.5,0,0,0,0-.7A.46.46,0,0,0,87.35,49.41Z"/><path class="cls-6" d="M90.24,49.41v1.08l-.17,0V49.4a.74.74,0,0,0-.12-.46.44.44,0,0,0-.36-.15.52.52,0,0,0-.41.19.71.71,0,0,0-.17.48v1l-.16,0V48.72l.16,0V49a.7.7,0,0,1,.26-.26.71.71,0,0,1,.36-.09.55.55,0,0,1,.46.19A1,1,0,0,1,90.24,49.41Z"/><path class="cls-6" d="M91.93,48.83l-.1.1a.55.55,0,0,0-.17-.13.46.46,0,0,0-.19,0,.31.31,0,0,0-.24.1.36.36,0,0,0-.1.26.28.28,0,0,0,.07.2.84.84,0,0,0,.31.16.73.73,0,0,1,.33.21.49.49,0,0,1,.1.32.53.53,0,0,1-.54.54.58.58,0,0,1-.26-.06.57.57,0,0,1-.2-.17L91,50.2a.6.6,0,0,0,.17.16.39.39,0,0,0,.2.05.36.36,0,0,0,.38-.38.34.34,0,0,0-.08-.24.8.8,0,0,0-.31-.17.79.79,0,0,1-.33-.19.42.42,0,0,1-.09-.28.52.52,0,0,1,.15-.38.5.5,0,0,1,.37-.15.53.53,0,0,1,.24.06A.63.63,0,0,1,91.93,48.83Z"/><path class="cls-6" d="M93.32,46.86V47a.5.5,0,0,0-.35.2.77.77,0,0,0-.11.45v1h.46v.16h-.46v1.66l-.17,0V47.72a1,1,0,0,1,.16-.6A.68.68,0,0,1,93.32,46.86Z"/><path class="cls-6" d="M94.74,48.61a.93.93,0,0,1,.69.28,1,1,0,0,1,0,1.38,1,1,0,0,1-1.37,0,1,1,0,0,1,0-1.38A.93.93,0,0,1,94.74,48.61Zm0,.16a.75.75,0,0,0-.56.23.79.79,0,0,0-.23.57.8.8,0,0,0,.23.58.79.79,0,0,0,1.12,0,.8.8,0,0,0,.23-.58A.79.79,0,0,0,95.3,49,.76.76,0,0,0,94.74,48.77Z"/><path class="cls-6" d="M97.07,48.62v.2H97a.37.37,0,0,0-.32.17.8.8,0,0,0-.12.46v1l-.16,0V48.72l.16,0V49a.74.74,0,0,1,.22-.28A.47.47,0,0,1,97.07,48.62Z"/><path class="cls-6" d="M98.91,49a.74.74,0,0,1,.23-.27.52.52,0,0,1,.3-.09.41.41,0,0,1,.37.18,1.14,1.14,0,0,1,.12.59v1.08l-.16,0V49.4a1,1,0,0,0-.08-.48.3.3,0,0,0-.28-.14.38.38,0,0,0-.34.17.94.94,0,0,0-.11.51v1l-.16,0V49.4a1,1,0,0,0-.08-.48.3.3,0,0,0-.28-.14.39.39,0,0,0-.34.17.89.89,0,0,0-.12.5v1l-.16,0V48.72l.16,0V49a.61.61,0,0,1,.21-.24.51.51,0,0,1,.29-.09.44.44,0,0,1,.28.09A.51.51,0,0,1,98.91,49Z"/><path class="cls-6" d="M100.88,47.73l.16.16-.16.17-.16-.17Zm.08.92v1.83l-.16,0V48.7Z"/><path class="cls-6" d="M103.22,49.41v1.08l-.17,0V49.4a.74.74,0,0,0-.12-.46.44.44,0,0,0-.36-.15.52.52,0,0,0-.41.19.71.71,0,0,0-.17.48v1l-.16,0V48.72l.16,0V49a.7.7,0,0,1,.26-.26.71.71,0,0,1,.36-.09.55.55,0,0,1,.46.19A1,1,0,0,1,103.22,49.41Z"/><path class="cls-6" d="M105.42,48.6l-.08.18h-.21a.57.57,0,0,1,.2.22.64.64,0,0,1,.07.3.58.58,0,0,1-.12.37.7.7,0,0,1-.35.23.73.73,0,0,1,.35.25.64.64,0,0,1,.12.39.64.64,0,0,1-.22.51.91.91,0,0,1-.93.12.74.74,0,0,1-.28-.22l.07-.17a.76.76,0,0,0,.26.25.67.67,0,0,0,.34.08.58.58,0,0,0,.42-.16.54.54,0,0,0,.17-.41.5.5,0,0,0-.17-.38.59.59,0,0,0-.42-.15.71.71,0,0,0-.25,0,1,1,0,0,0-.24.14l-.09-.11.15-.11.16-.07a.62.62,0,0,1-.32-.21.56.56,0,0,1-.11-.35.65.65,0,0,1,.21-.51.81.81,0,0,1,.57-.19H105l.35,0Zm-.73.2a.55.55,0,0,0-.39.15.49.49,0,0,0-.16.37.48.48,0,0,0,.16.36.59.59,0,0,0,.79,0,.48.48,0,0,0,.16-.36.49.49,0,0,0-.16-.37A.55.55,0,0,0,104.69,48.8Z"/><path class="cls-6" d="M107.81,48.65l.7,1.61.7-1.61.16.05-.87,1.92-.85-1.91Z"/><path class="cls-6" d="M110.08,47.73l.16.16-.16.17-.16-.17Zm.08.92v1.83l-.16,0V48.7Z"/><path class="cls-6" d="M111.89,48.83l-.1.1a.55.55,0,0,0-.17-.13.46.46,0,0,0-.19,0,.31.31,0,0,0-.24.1.36.36,0,0,0-.1.26.28.28,0,0,0,.07.2.84.84,0,0,0,.31.16.73.73,0,0,1,.33.21.49.49,0,0,1,.1.32.53.53,0,0,1-.54.54.58.58,0,0,1-.26-.06.57.57,0,0,1-.2-.17l.09-.12a.6.6,0,0,0,.17.16.39.39,0,0,0,.2.05.36.36,0,0,0,.38-.38.34.34,0,0,0-.08-.24.8.8,0,0,0-.31-.17.79.79,0,0,1-.33-.19.42.42,0,0,1-.09-.28.52.52,0,0,1,.15-.38.5.5,0,0,1,.37-.15.53.53,0,0,1,.24.06A.63.63,0,0,1,111.89,48.83Z"/><path class="cls-6" d="M112.72,47.73l.16.16-.16.17-.16-.17Zm.08.92v1.83l-.16,0V48.7Z"/><path class="cls-6" d="M114.5,48.61a.93.93,0,0,1,.69.28,1,1,0,0,1,0,1.38,1,1,0,0,1-1.37,0,1,1,0,0,1,0-1.38A.93.93,0,0,1,114.5,48.61Zm0,.16a.75.75,0,0,0-.56.23.79.79,0,0,0-.23.57.8.8,0,0,0,.23.58.79.79,0,0,0,1.12,0,.8.8,0,0,0,.23-.58.79.79,0,0,0-.23-.57A.76.76,0,0,0,114.5,48.77Z"/><path class="cls-6" d="M117.56,49.41v1.08l-.17,0V49.4a.74.74,0,0,0-.12-.46.44.44,0,0,0-.36-.15.52.52,0,0,0-.41.19.71.71,0,0,0-.17.48v1l-.16,0V48.72l.16,0V49a.7.7,0,0,1,.26-.26.71.71,0,0,1,.36-.09.55.55,0,0,1,.46.19A1,1,0,0,1,117.56,49.41Z"/><path class="cls-6" d="M120.14,47.73l.16.16-.16.17-.16-.17Zm.08.92v1.83l-.16,0V48.7Z"/><path class="cls-6" d="M122.49,49.41v1.08l-.17,0V49.4a.74.74,0,0,0-.12-.46.44.44,0,0,0-.36-.15.52.52,0,0,0-.41.19.71.71,0,0,0-.17.48v1l-.16,0V48.72l.16,0V49a.7.7,0,0,1,.26-.26.71.71,0,0,1,.36-.09.55.55,0,0,1,.46.19A1,1,0,0,1,122.49,49.41Z"/><path class="cls-6" d="M123.62,48.06v.61h.54v.16h-.54v1a.76.76,0,0,0,.07.39.28.28,0,0,0,.25.1H124l.12,0,0,.16-.11,0h-.08a.45.45,0,0,1-.38-.14.92.92,0,0,1-.11-.53v-1h-.18l0-.16h.14v-.57Z"/><path class="cls-6" d="M125.72,48.61a.93.93,0,0,1,.69.28,1,1,0,0,1,0,1.38,1,1,0,0,1-1.37,0,1,1,0,0,1,0-1.38A.93.93,0,0,1,125.72,48.61Zm0,.16a.75.75,0,0,0-.56.23.79.79,0,0,0-.23.57.8.8,0,0,0,.23.58.79.79,0,0,0,1.12,0,.8.8,0,0,0,.23-.58.79.79,0,0,0-.23-.57A.76.76,0,0,0,125.72,48.77Z"/><path class="cls-6" d="M129.69,48.62v.2h-.07a.37.37,0,0,0-.32.17.8.8,0,0,0-.12.46v1l-.16,0V48.72l.16,0V49a.74.74,0,0,1,.22-.28A.47.47,0,0,1,129.69,48.62Z"/><path class="cls-6" d="M131.92,49l-1.49.9a.84.84,0,0,0,.3.36.77.77,0,0,0,.44.13.92.92,0,0,0,.29,0,1.13,1.13,0,0,0,.28-.15v.18a1.16,1.16,0,0,1-.28.13,1,1,0,0,1-.29,0,.92.92,0,0,1-.68-.28,1,1,0,0,1,0-1.39.92.92,0,0,1,.68-.28.87.87,0,0,1,.4.09A1.28,1.28,0,0,1,131.92,49Zm-.26,0a.67.67,0,0,0-.23-.16.72.72,0,0,0-.27,0,.78.78,0,0,0-.57.23.77.77,0,0,0-.23.56s0,.08,0,.11,0,.05,0,.08Z"/><path class="cls-6" d="M133.66,49.1v1.37l-.15.05v-.28a.63.63,0,0,1-.23.22.63.63,0,0,1-.75-.1.64.64,0,0,1-.18-.46.64.64,0,0,1,.65-.65.61.61,0,0,1,.29.07.52.52,0,0,1,.2.2v-.4a.33.33,0,0,0-.08-.26.43.43,0,0,0-.29-.07h-.25l0-.15h.26a.55.55,0,0,1,.38.1A.51.51,0,0,1,133.66,49.1Zm-.66.31a.47.47,0,0,0-.35.14.51.51,0,0,0,0,.7.46.46,0,0,0,.34.14.46.46,0,0,0,.34-.15.5.5,0,0,0,0-.7A.46.46,0,0,0,133,49.41Z"/><path class="cls-6" d="M134.7,46.82v3.66l-.16,0V46.88Z"/><path class="cls-6" d="M135.68,47.73l.16.16-.16.17-.16-.17Zm.08.92v1.83l-.16,0V48.7Z"/><path class="cls-6" d="M136.93,48.06v.61h.54v.16h-.54v1a.76.76,0,0,0,.07.39.28.28,0,0,0,.25.1h.09l.12,0,0,.16-.11,0h-.08a.45.45,0,0,1-.38-.14.92.92,0,0,1-.11-.53v-1h-.18l0-.16h.14v-.57Z"/><path class="cls-6" d="M138.13,48.65l.77,1.49.73-1.48.14.07-1.31,2.61-.15-.07.49-1L138,48.72Z"/></g><g id="gray_blue"><path class="cls-7" d="M80.71,25.7l-1.54,2H74.71a.36.36,0,0,0-.41.33c0,.22.08.33.31.33h3.21a2.43,2.43,0,0,1,1.82.69,2.2,2.2,0,0,1,.52,1.9,2.79,2.79,0,0,1-1.07,1.87,3.11,3.11,0,0,1-2,.68H71.32l1.54-2h4.51a1.25,1.25,0,0,0,.57-.13.61.61,0,0,0,.38-.45.41.41,0,0,0-.25-.45,1.19,1.19,0,0,0-.53-.11H74.32a2.35,2.35,0,0,1-1.7-.6A1.87,1.87,0,0,1,72.1,28a2.55,2.55,0,0,1,1-1.73A3,3,0,0,1,75,25.7Z"/><path class="cls-7" d="M88.48,25.7l-1.56,2H85l-.83,5.8h-2l.83-5.8h-2.6l1.54-2Z"/><path class="cls-7" d="M96.55,33.59H93.7l-1.63-2h-2.7l-.28,2H87.14l.56-4h5.44a1.77,1.77,0,0,0,.85-.19.94.94,0,0,0,.52-.72c.09-.62-.28-.93-1.1-.93H88l1.57-2h4a3.47,3.47,0,0,1,2.3.69,2.34,2.34,0,0,1,.71,2.25,3.15,3.15,0,0,1-.63,1.49,3.36,3.36,0,0,1-1.29,1Z"/><path class="cls-7" d="M99.39,33.59l1.47-2h2.64l-1.23-2.83-3.54,4.83H96.3l5-6.93A2.34,2.34,0,0,1,102,26a1.4,1.4,0,0,1,.77-.28,1.06,1.06,0,0,1,.69.28,1.62,1.62,0,0,1,.44.61l3,6.93Z"/><path class="cls-7" d="M115.84,25.79l-1.55,2h-3.17a2.06,2.06,0,0,0-1.41.54,2.2,2.2,0,0,0-.72,1.38,1.63,1.63,0,0,0,.33,1.36,1.59,1.59,0,0,0,1.27.52h2.29l.1-.73h-2.47l-1-1.92h5.71l-.66,4.65H110.3a3.14,3.14,0,0,1-2.57-1.13,3.52,3.52,0,0,1-.68-2.84,4.34,4.34,0,0,1,1.46-2.77,4.27,4.27,0,0,1,2.89-1.06Z"/><path class="cls-7" d="M116.87,33.59h-1.95l1.11-7.8H118Z"/><path class="cls-7" d="M126.43,25.79l-1.54,2h-4.45a.35.35,0,0,0-.41.33c0,.22.07.33.31.33h3.21a2.42,2.42,0,0,1,1.82.69,2.18,2.18,0,0,1,.52,1.9,2.78,2.78,0,0,1-1.07,1.87,3.1,3.1,0,0,1-2,.68H117l1.54-2h4.51a1.24,1.24,0,0,0,.57-.13.6.6,0,0,0,.38-.45.42.42,0,0,0-.25-.45,1.19,1.19,0,0,0-.54-.11H120a2.37,2.37,0,0,1-1.7-.6,1.87,1.87,0,0,1-.52-1.71,2.53,2.53,0,0,1,1-1.73,3,3,0,0,1,1.87-.6Z"/><path class="cls-7" d="M133.88,25.79l-1.56,2h-1.9l-.83,5.8h-2l.83-5.8h-2.6l1.55-2Z"/><path class="cls-7" d="M134.79,33.59h-1.95l1.11-7.8h1.95Z"/><path class="cls-7" d="M143.38,31.59l-1.55,2h-3.17a3.13,3.13,0,0,1-2.57-1.13,3.53,3.53,0,0,1-.68-2.84,4.37,4.37,0,0,1,1.46-2.77,4.27,4.27,0,0,1,2.89-1.06h4.43l-1.55,2h-3.17a2,2,0,0,0-1.41.54,2.22,2.22,0,0,0-.72,1.38,1.62,1.62,0,0,0,.33,1.35,1.56,1.56,0,0,0,1.25.52Z"/><path class="cls-7" d="M152.39,25.79l-1.54,2h-4.45a.36.36,0,0,0-.41.33c0,.22.07.33.31.33h3.21a2.41,2.41,0,0,1,1.81.69,2.18,2.18,0,0,1,.53,1.9,2.81,2.81,0,0,1-1.07,1.87,3.12,3.12,0,0,1-2,.68H143l1.54-2h4.51a1.26,1.26,0,0,0,.57-.13A.59.59,0,0,0,150,31a.41.41,0,0,0-.25-.45,1.19,1.19,0,0,0-.53-.11H146a2.36,2.36,0,0,1-1.7-.6,1.87,1.87,0,0,1-.53-1.71,2.53,2.53,0,0,1,1-1.73,3,3,0,0,1,1.87-.6Z"/><path class="cls-3" d="M67.92,35.57l-1.56,2h-1.9l-.83,5.8H61.68l.83-5.8h-2.6l1.55-2Z"/><path class="cls-3" d="M73.79,41.38l-1.55,2h-5.6l1.12-7.8h6.86l-1.55,2H69.42l-.12.85h4.6l-1.55,2H69l-.14,1Z"/><path class="cls-3" d="M81.79,41.38l-1.55,2H77.08a3.13,3.13,0,0,1-2.57-1.13,3.53,3.53,0,0,1-.68-2.84,4.36,4.36,0,0,1,1.46-2.77,4.25,4.25,0,0,1,2.89-1.06h4.43l-1.55,2H77.9a2,2,0,0,0-1.41.54,2.22,2.22,0,0,0-.72,1.38,1.62,1.62,0,0,0,.33,1.35,1.56,1.56,0,0,0,1.25.53Z"/><path class="cls-3" d="M89.61,43.38h-2l.42-2.93H84.3l-.42,2.93H81.94L83,35.57h2l-.41,2.87h3.78l.41-2.87h1.95Z"/><path class="cls-3" d="M98,42.37c-.1.71-.41,1.06-.93,1.06a1.28,1.28,0,0,1-1-.52l-3.16-3.83-.62,4.29H90.31l1-6.8a1.25,1.25,0,0,1,.33-.71.88.88,0,0,1,.68-.28,1.18,1.18,0,0,1,.92.47l3.16,3.83.61-4.3h1.95Z"/><path class="cls-3" d="M108.36,39.41a4.63,4.63,0,0,1-1.49,2.84A4.16,4.16,0,0,1,104,43.38h-1.9a3.13,3.13,0,0,1-2.57-1.13,3.49,3.49,0,0,1-.68-2.84,4.32,4.32,0,0,1,1.47-2.77,4.27,4.27,0,0,1,2.9-1.06h1.9a3.23,3.23,0,0,1,2.59,1.06A3.32,3.32,0,0,1,108.36,39.41Zm-3.55-1.83h-1.9a2,2,0,0,0-1.41.54,2.2,2.2,0,0,0-.73,1.38,1.62,1.62,0,0,0,.33,1.36,1.58,1.58,0,0,0,1.26.52h1.9a2.1,2.1,0,0,0,1.42-.52,2.14,2.14,0,0,0,.72-1.36,1.68,1.68,0,0,0-.34-1.38A1.54,1.54,0,0,0,104.81,37.58Z"/><path class="cls-3" d="M114.91,41.38l-1.56,2h-5.57l1.11-7.8h2l-.83,5.8Z"/><path class="cls-3" d="M124.11,39.41a4.58,4.58,0,0,1-1.49,2.84,4.16,4.16,0,0,1-2.89,1.13h-1.9a3.14,3.14,0,0,1-2.57-1.13,3.53,3.53,0,0,1-.68-2.84A4.35,4.35,0,0,1,116,36.64a4.27,4.27,0,0,1,2.9-1.06h1.9a3.22,3.22,0,0,1,2.59,1.06A3.29,3.29,0,0,1,124.11,39.41Zm-3.55-1.83h-1.9a2,2,0,0,0-1.42.54,2.2,2.2,0,0,0-.72,1.38,1.64,1.64,0,0,0,.33,1.36,1.59,1.59,0,0,0,1.26.52H120a2.09,2.09,0,0,0,1.41-.52,2.12,2.12,0,0,0,.72-1.36,1.7,1.7,0,0,0-.33-1.38A1.54,1.54,0,0,0,120.56,37.58Z"/><path class="cls-3" d="M133,35.57l-1.54,2h-3.17a2,2,0,0,0-1.41.54,2.2,2.2,0,0,0-.73,1.38,1.62,1.62,0,0,0,.33,1.36,1.6,1.6,0,0,0,1.27.52h2.29l.1-.73H127.7l-1-1.92h5.71l-.66,4.65h-4.25a3.12,3.12,0,0,1-2.56-1.13,3.52,3.52,0,0,1-.68-2.84,4.36,4.36,0,0,1,1.47-2.77,4.25,4.25,0,0,1,2.89-1.06Z"/><path class="cls-3" d="M142.45,35.57l-4.5,5.22-.37,2.58h-2l.37-2.59-3.12-5.21h2.51l1.91,3.17L140,35.57Z"/><path class="cls-3" d="M143,41.09l-1,3h-1.57l.45-3Z"/><path class="cls-3" d="M146.07,43.44h-2l1.17-7.87h2Z"/><path class="cls-3" d="M154.37,42.43c-.1.71-.42,1.07-1,1.07a1.31,1.31,0,0,1-1-.53l-3.25-3.86-.64,4.33h-2l1-6.86a1.3,1.3,0,0,1,.34-.72.92.92,0,0,1,.7-.29,1.22,1.22,0,0,1,1,.47l3.25,3.86.64-4.33h2Z"/><path class="cls-3" d="M162.93,41.41l-1.6,2h-3.27a3.25,3.25,0,0,1-2.65-1.14,3.49,3.49,0,0,1-.7-2.87,4.36,4.36,0,0,1,1.52-2.79,4.48,4.48,0,0,1,3-1.07h4.58l-1.6,2h-3.28a2.14,2.14,0,0,0-1.45.54,2.24,2.24,0,0,0-.75,1.38,1.61,1.61,0,0,0,.34,1.36,1.64,1.64,0,0,0,1.3.53Z"/><path class="cls-6" d="M84.24,48.06v.61h.54v.16h-.54v1a.76.76,0,0,0,.07.39.28.28,0,0,0,.25.1h.09l.12,0,0,.16-.11,0h-.08a.45.45,0,0,1-.38-.14.92.92,0,0,1-.11-.53v-1h-.18l0-.16h.14v-.57Z"/><path class="cls-6" d="M86.17,48.62v.2h-.07a.37.37,0,0,0-.32.17.8.8,0,0,0-.12.46v1l-.16,0V48.72l.16,0V49a.74.74,0,0,1,.22-.28A.47.47,0,0,1,86.17,48.62Z"/><path class="cls-6" d="M88,49.1v1.37l-.15.05v-.28a.63.63,0,0,1-.23.22.63.63,0,0,1-.75-.1.64.64,0,0,1-.18-.46.64.64,0,0,1,.65-.65.61.61,0,0,1,.29.07.52.52,0,0,1,.2.2v-.4a.33.33,0,0,0-.08-.26.43.43,0,0,0-.29-.07h-.25l0-.15h.26a.55.55,0,0,1,.38.1A.51.51,0,0,1,88,49.1Zm-.66.31a.47.47,0,0,0-.35.14.51.51,0,0,0,0,.7.46.46,0,0,0,.34.14.46.46,0,0,0,.34-.15.5.5,0,0,0,0-.7A.46.46,0,0,0,87.35,49.41Z"/><path class="cls-6" d="M90.24,49.41v1.08l-.17,0V49.4a.74.74,0,0,0-.12-.46.44.44,0,0,0-.36-.15.52.52,0,0,0-.41.19.71.71,0,0,0-.17.48v1l-.16,0V48.72l.16,0V49a.7.7,0,0,1,.26-.26.71.71,0,0,1,.36-.09.55.55,0,0,1,.46.19A1,1,0,0,1,90.24,49.41Z"/><path class="cls-6" d="M91.93,48.83l-.1.1a.55.55,0,0,0-.17-.13.46.46,0,0,0-.19,0,.31.31,0,0,0-.24.1.36.36,0,0,0-.1.26.28.28,0,0,0,.07.2.84.84,0,0,0,.31.16.73.73,0,0,1,.33.21.49.49,0,0,1,.1.32.53.53,0,0,1-.54.54.58.58,0,0,1-.26-.06.57.57,0,0,1-.2-.17L91,50.2a.6.6,0,0,0,.17.16.39.39,0,0,0,.2.05.36.36,0,0,0,.38-.38.34.34,0,0,0-.08-.24.8.8,0,0,0-.31-.17.79.79,0,0,1-.33-.19.42.42,0,0,1-.09-.28.52.52,0,0,1,.15-.38.5.5,0,0,1,.37-.15.53.53,0,0,1,.24.06A.63.63,0,0,1,91.93,48.83Z"/><path class="cls-6" d="M93.32,46.86V47a.5.5,0,0,0-.35.2.77.77,0,0,0-.11.45v1h.46v.16h-.46v1.66l-.17,0V47.72a1,1,0,0,1,.16-.6A.68.68,0,0,1,93.32,46.86Z"/><path class="cls-6" d="M94.74,48.61a.93.93,0,0,1,.69.28,1,1,0,0,1,0,1.38,1,1,0,0,1-1.37,0,1,1,0,0,1,0-1.38A.93.93,0,0,1,94.74,48.61Zm0,.16a.75.75,0,0,0-.56.23.79.79,0,0,0-.23.57.8.8,0,0,0,.23.58.79.79,0,0,0,1.12,0,.8.8,0,0,0,.23-.58A.79.79,0,0,0,95.3,49,.76.76,0,0,0,94.74,48.77Z"/><path class="cls-6" d="M97.07,48.62v.2H97a.37.37,0,0,0-.32.17.8.8,0,0,0-.12.46v1l-.16,0V48.72l.16,0V49a.74.74,0,0,1,.22-.28A.47.47,0,0,1,97.07,48.62Z"/><path class="cls-6" d="M98.91,49a.74.74,0,0,1,.23-.27.52.52,0,0,1,.3-.09.41.41,0,0,1,.37.18,1.14,1.14,0,0,1,.12.59v1.08l-.16,0V49.4a1,1,0,0,0-.08-.48.3.3,0,0,0-.28-.14.38.38,0,0,0-.34.17.94.94,0,0,0-.11.51v1l-.16,0V49.4a1,1,0,0,0-.08-.48.3.3,0,0,0-.28-.14.39.39,0,0,0-.34.17.89.89,0,0,0-.12.5v1l-.16,0V48.72l.16,0V49a.61.61,0,0,1,.21-.24.51.51,0,0,1,.29-.09.44.44,0,0,1,.28.09A.51.51,0,0,1,98.91,49Z"/><path class="cls-6" d="M100.88,47.73l.16.16-.16.17-.16-.17Zm.08.92v1.83l-.16,0V48.7Z"/><path class="cls-6" d="M103.22,49.41v1.08l-.17,0V49.4a.74.74,0,0,0-.12-.46.44.44,0,0,0-.36-.15.52.52,0,0,0-.41.19.71.71,0,0,0-.17.48v1l-.16,0V48.72l.16,0V49a.7.7,0,0,1,.26-.26.71.71,0,0,1,.36-.09.55.55,0,0,1,.46.19A1,1,0,0,1,103.22,49.41Z"/><path class="cls-6" d="M105.42,48.6l-.08.18h-.21a.57.57,0,0,1,.2.22.64.64,0,0,1,.07.3.58.58,0,0,1-.12.37.7.7,0,0,1-.35.23.73.73,0,0,1,.35.25.64.64,0,0,1,.12.39.64.64,0,0,1-.22.51.91.91,0,0,1-.93.12.74.74,0,0,1-.28-.22l.07-.17a.76.76,0,0,0,.26.25.67.67,0,0,0,.34.08.58.58,0,0,0,.42-.16.54.54,0,0,0,.17-.41.5.5,0,0,0-.17-.38.59.59,0,0,0-.42-.15.71.71,0,0,0-.25,0,1,1,0,0,0-.24.14l-.09-.11.15-.11.16-.07a.62.62,0,0,1-.32-.21.56.56,0,0,1-.11-.35.65.65,0,0,1,.21-.51.81.81,0,0,1,.57-.19H105l.35,0Zm-.73.2a.55.55,0,0,0-.39.15.49.49,0,0,0-.16.37.48.48,0,0,0,.16.36.59.59,0,0,0,.79,0,.48.48,0,0,0,.16-.36.49.49,0,0,0-.16-.37A.55.55,0,0,0,104.69,48.8Z"/><path class="cls-6" d="M107.81,48.65l.7,1.61.7-1.61.16.05-.87,1.92-.85-1.91Z"/><path class="cls-6" d="M110.08,47.73l.16.16-.16.17-.16-.17Zm.08.92v1.83l-.16,0V48.7Z"/><path class="cls-6" d="M111.89,48.83l-.1.1a.55.55,0,0,0-.17-.13.46.46,0,0,0-.19,0,.31.31,0,0,0-.24.1.36.36,0,0,0-.1.26.28.28,0,0,0,.07.2.84.84,0,0,0,.31.16.73.73,0,0,1,.33.21.49.49,0,0,1,.1.32.53.53,0,0,1-.54.54.58.58,0,0,1-.26-.06.57.57,0,0,1-.2-.17l.09-.12a.6.6,0,0,0,.17.16.39.39,0,0,0,.2.05.36.36,0,0,0,.38-.38.34.34,0,0,0-.08-.24.8.8,0,0,0-.31-.17.79.79,0,0,1-.33-.19.42.42,0,0,1-.09-.28.52.52,0,0,1,.15-.38.5.5,0,0,1,.37-.15.53.53,0,0,1,.24.06A.63.63,0,0,1,111.89,48.83Z"/><path class="cls-6" d="M112.72,47.73l.16.16-.16.17-.16-.17Zm.08.92v1.83l-.16,0V48.7Z"/><path class="cls-6" d="M114.5,48.61a.93.93,0,0,1,.69.28,1,1,0,0,1,0,1.38,1,1,0,0,1-1.37,0,1,1,0,0,1,0-1.38A.93.93,0,0,1,114.5,48.61Zm0,.16a.75.75,0,0,0-.56.23.79.79,0,0,0-.23.57.8.8,0,0,0,.23.58.79.79,0,0,0,1.12,0,.8.8,0,0,0,.23-.58.79.79,0,0,0-.23-.57A.76.76,0,0,0,114.5,48.77Z"/><path class="cls-6" d="M117.56,49.41v1.08l-.17,0V49.4a.74.74,0,0,0-.12-.46.44.44,0,0,0-.36-.15.52.52,0,0,0-.41.19.71.71,0,0,0-.17.48v1l-.16,0V48.72l.16,0V49a.7.7,0,0,1,.26-.26.71.71,0,0,1,.36-.09.55.55,0,0,1,.46.19A1,1,0,0,1,117.56,49.41Z"/><path class="cls-6" d="M120.14,47.73l.16.16-.16.17-.16-.17Zm.08.92v1.83l-.16,0V48.7Z"/><path class="cls-6" d="M122.49,49.41v1.08l-.17,0V49.4a.74.74,0,0,0-.12-.46.44.44,0,0,0-.36-.15.52.52,0,0,0-.41.19.71.71,0,0,0-.17.48v1l-.16,0V48.72l.16,0V49a.7.7,0,0,1,.26-.26.71.71,0,0,1,.36-.09.55.55,0,0,1,.46.19A1,1,0,0,1,122.49,49.41Z"/><path class="cls-6" d="M123.62,48.06v.61h.54v.16h-.54v1a.76.76,0,0,0,.07.39.28.28,0,0,0,.25.1H124l.12,0,0,.16-.11,0h-.08a.45.45,0,0,1-.38-.14.92.92,0,0,1-.11-.53v-1h-.18l0-.16h.14v-.57Z"/><path class="cls-6" d="M125.72,48.61a.93.93,0,0,1,.69.28,1,1,0,0,1,0,1.38,1,1,0,0,1-1.37,0,1,1,0,0,1,0-1.38A.93.93,0,0,1,125.72,48.61Zm0,.16a.75.75,0,0,0-.56.23.79.79,0,0,0-.23.57.8.8,0,0,0,.23.58.79.79,0,0,0,1.12,0,.8.8,0,0,0,.23-.58.79.79,0,0,0-.23-.57A.76.76,0,0,0,125.72,48.77Z"/><path class="cls-6" d="M129.69,48.62v.2h-.07a.37.37,0,0,0-.32.17.8.8,0,0,0-.12.46v1l-.16,0V48.72l.16,0V49a.74.74,0,0,1,.22-.28A.47.47,0,0,1,129.69,48.62Z"/><path class="cls-6" d="M131.92,49l-1.49.9a.84.84,0,0,0,.3.36.77.77,0,0,0,.44.13.92.92,0,0,0,.29,0,1.13,1.13,0,0,0,.28-.15v.18a1.16,1.16,0,0,1-.28.13,1,1,0,0,1-.29,0,.92.92,0,0,1-.68-.28,1,1,0,0,1,0-1.39.92.92,0,0,1,.68-.28.87.87,0,0,1,.4.09A1.28,1.28,0,0,1,131.92,49Zm-.26,0a.67.67,0,0,0-.23-.16.72.72,0,0,0-.27,0,.78.78,0,0,0-.57.23.77.77,0,0,0-.23.56s0,.08,0,.11,0,.05,0,.08Z"/><path class="cls-6" d="M133.66,49.1v1.37l-.15.05v-.28a.63.63,0,0,1-.23.22.63.63,0,0,1-.75-.1.64.64,0,0,1-.18-.46.64.64,0,0,1,.65-.65.61.61,0,0,1,.29.07.52.52,0,0,1,.2.2v-.4a.33.33,0,0,0-.08-.26.43.43,0,0,0-.29-.07h-.25l0-.15h.26a.55.55,0,0,1,.38.1A.51.51,0,0,1,133.66,49.1Zm-.66.31a.47.47,0,0,0-.35.14.51.51,0,0,0,0,.7.46.46,0,0,0,.34.14.46.46,0,0,0,.34-.15.5.5,0,0,0,0-.7A.46.46,0,0,0,133,49.41Z"/><path class="cls-6" d="M134.7,46.82v3.66l-.16,0V46.88Z"/><path class="cls-6" d="M135.68,47.73l.16.16-.16.17-.16-.17Zm.08.92v1.83l-.16,0V48.7Z"/><path class="cls-6" d="M136.93,48.06v.61h.54v.16h-.54v1a.76.76,0,0,0,.07.39.28.28,0,0,0,.25.1h.09l.12,0,0,.16-.11,0h-.08a.45.45,0,0,1-.38-.14.92.92,0,0,1-.11-.53v-1h-.18l0-.16h.14v-.57Z"/><path class="cls-6" d="M138.13,48.65l.77,1.49.73-1.48.14.07-1.31,2.61-.15-.07.49-1L138,48.72Z"/></g></g></g></svg>