<svg xmlns="http://www.w3.org/2000/svg" viewBox="0 0 34 38.96"><defs><style>.cls-1{fill:#fff;}</style></defs><title>technology_solutions</title><g id="Layer_2" data-name="Layer 2"><g id="Layer_1-2" data-name="Layer 1"><path class="cls-1" d="M23.93,37.39H17.79V35.6a.79.79,0,1,0-1.57,0v1.79H10.07a.79.79,0,0,0,0,1.57H23.94a.78.78,0,0,0,.79-.79A.8.8,0,0,0,23.93,37.39Z"/><path class="cls-1" d="M15.8,22A5,5,0,0,0,12,26.14H8.85a2.81,2.81,0,0,1,2.7-2.07.79.79,0,0,0,0-1.57,4.38,4.38,0,0,0-4.32,3.64H1a.78.78,0,0,0-1,.75v4.29A1.81,1.81,0,0,0,1.8,33H32.2a1.81,1.81,0,0,0,1.8-1.8V10.26a1.81,1.81,0,0,0-1.8-1.8h-8.5a.79.79,0,0,0,0,1.57h8.5a.23.23,0,0,1,.23.23V31.19a.23.23,0,0,1-.23.23H1.8a.23.23,0,0,1-.23-.23V27.72H30a.79.79,0,0,0,0-1.57H26.6a4.38,4.38,0,0,0-4.32-3.64.79.79,0,0,0,0,1.57A2.8,2.8,0,0,1,25,26.15H21.86a5,5,0,0,0-4.48-4.23A5.68,5.68,0,0,0,15.8,22Zm1.13,1.45a3.42,3.42,0,0,1,3.33,2.67H13.6A3.41,3.41,0,0,1,16.93,23.47Z"/><path class="cls-1" d="M11.13,9.24a.78.78,0,0,0-.79-.79H1.8A1.81,1.81,0,0,0,0,10.26V24a.79.79,0,0,0,1.57,0V10.26A.23.23,0,0,1,1.8,10h8.54A.78.78,0,0,0,11.13,9.24Z"/><path class="cls-1" d="M19.92,21.22a.78.78,0,0,0,.79-.79V18.92h1.73a.78.78,0,0,0,.79-.79V16.56a2.83,2.83,0,0,0-.44-1.51l-1.22-1.92a1.12,1.12,0,0,1-.17-.61V6.24a4,4,0,0,0-1-2.6L17.52.27a.78.78,0,0,0-.6-.27h0a.79.79,0,0,0-.6.28L13.46,3.65a4,4,0,0,0-1,2.58v6.25a1.11,1.11,0,0,1-.21.65L11,15a2.8,2.8,0,0,0-.51,1.61v1.52a.78.78,0,0,0,.79.79h1.43v1.52a.79.79,0,0,0,1.57,0V18.92h0a.79.79,0,0,0,0-1.57H12.06v-.73a1.29,1.29,0,0,1,.22-.72L13.58,14a2.72,2.72,0,0,0,.48-1.56V6.23a2.41,2.41,0,0,1,.57-1.56L16.94,2l2.3,2.67a2.41,2.41,0,0,1,.58,1.57v6.29A2.7,2.7,0,0,0,20.25,14l1.22,1.92a1.23,1.23,0,0,1,.19.67v.78H19.54a.78.78,0,0,0-.79.79.77.77,0,0,0,.38.67v1.65A.79.79,0,0,0,19.92,21.22Z"/><path class="cls-1" d="M16.06,18.68v3.39a.81.81,0,0,0,.74.82.79.79,0,0,0,.83-.79V18.68a.78.78,0,0,0-.79-.79h0A.78.78,0,0,0,16.06,18.68Z"/></g></g></svg>